<svg xmlns="http://www.w3.org/2000/svg" xmlns:xlink="http://www.w3.org/1999/xlink" width="399" zoomAndPan="magnify" viewBox="0 0 299.25 90.749999" height="121" preserveAspectRatio="xMidYMid meet" version="1.0"><defs><g/></defs><g fill="#ffffff" fill-opacity="1"><g transform="translate(3.868019, 57.965315)"><g><path d="M 3.171875 -24.5 L 11.96875 -24.5 L 13.28125 -7.90625 L 21.296875 -24.5 L 25.125 -24.5 L 13.703125 0 L 4.59375 0 Z M 3.171875 -24.5 "/></g></g></g><g fill="#ffffff" fill-opacity="1"><g transform="translate(25.895522, 57.965315)"><g><path d="M 8.34375 0 L 0 0 L 5.203125 -24.5 L 13.578125 -24.5 Z M 8.34375 0 "/></g></g></g><g fill="#ffffff" fill-opacity="1"><g transform="translate(38.085821, 57.965315)"><g><path d="M 20.578125 0 L 11.546875 0 L 7.25 -17.71875 L 3.46875 0 L 0 0 L 5.203125 -24.5 L 14.4375 -24.5 L 18.484375 -6.5625 L 22.3125 -24.5 L 25.859375 -24.5 Z M 20.578125 0 "/></g></g></g><g fill="#ffffff" fill-opacity="1"><g transform="translate(62.543695, 57.965315)"><g><path d="M 8.34375 0 L 0 0 L 5.203125 -24.5 L 13.578125 -24.5 Z M 8.34375 0 "/></g></g></g><g fill="#ffffff" fill-opacity="1"><g transform="translate(74.733993, 57.965315)"><g><path d="M 21.765625 -2.078125 C 21.117188 -1.773438 20.453125 -1.472656 19.765625 -1.171875 C 19.085938 -0.878906 18.363281 -0.625 17.59375 -0.40625 C 16.820312 -0.1875 15.976562 -0.015625 15.0625 0.109375 C 14.15625 0.242188 13.160156 0.3125 12.078125 0.3125 C 8.628906 0.3125 5.972656 -0.457031 4.109375 -2 C 2.242188 -3.550781 1.3125 -6.125 1.3125 -9.71875 C 1.3125 -11.8125 1.628906 -13.773438 2.265625 -15.609375 C 2.910156 -17.453125 3.863281 -19.0625 5.125 -20.4375 C 6.394531 -21.8125 7.953125 -22.894531 9.796875 -23.6875 C 11.648438 -24.488281 13.773438 -24.890625 16.171875 -24.890625 C 17.304688 -24.890625 18.34375 -24.8125 19.28125 -24.65625 C 20.21875 -24.507812 21.066406 -24.3125 21.828125 -24.0625 C 22.585938 -23.820312 23.269531 -23.554688 23.875 -23.265625 C 24.476562 -22.984375 25.023438 -22.71875 25.515625 -22.46875 L 24.125 -15.28125 L 17.171875 -15.28125 C 17.203125 -15.539062 17.234375 -15.875 17.265625 -16.28125 C 17.304688 -16.695312 17.335938 -17.113281 17.359375 -17.53125 C 17.390625 -17.957031 17.414062 -18.375 17.4375 -18.78125 C 17.46875 -19.195312 17.484375 -19.550781 17.484375 -19.84375 C 17.484375 -20.039062 17.46875 -20.273438 17.4375 -20.546875 C 17.414062 -20.816406 17.351562 -21.082031 17.25 -21.34375 C 17.144531 -21.601562 16.984375 -21.816406 16.765625 -21.984375 C 16.546875 -22.148438 16.257812 -22.234375 15.90625 -22.234375 C 15.226562 -22.234375 14.613281 -21.957031 14.0625 -21.40625 C 13.507812 -20.851562 13.015625 -20.117188 12.578125 -19.203125 C 12.140625 -18.285156 11.753906 -17.25 11.421875 -16.09375 C 11.085938 -14.9375 10.8125 -13.757812 10.59375 -12.5625 C 10.375 -11.363281 10.207031 -10.1875 10.09375 -9.03125 C 9.976562 -7.875 9.921875 -6.859375 9.921875 -5.984375 C 9.921875 -5.722656 9.929688 -5.398438 9.953125 -5.015625 C 9.984375 -4.628906 10.0625 -4.253906 10.1875 -3.890625 C 10.3125 -3.535156 10.507812 -3.226562 10.78125 -2.96875 C 11.050781 -2.707031 11.421875 -2.578125 11.890625 -2.578125 C 12.679688 -2.578125 13.453125 -3.070312 14.203125 -4.0625 C 14.953125 -5.0625 15.609375 -6.832031 16.171875 -9.375 L 23.3125 -9.375 Z M 21.765625 -2.078125 "/></g></g></g><g fill="#ffffff" fill-opacity="1"><g transform="translate(98.998984, 57.965315)"><g><path d="M 8.34375 0 L 0 0 L 5.203125 -24.5 L 13.578125 -24.5 Z M 8.34375 0 "/></g></g></g><g fill="#ffffff" fill-opacity="1"><g transform="translate(111.189282, 57.965315)"><g><path d="M 10.296875 -8.765625 C 10.171875 -8.191406 10.066406 -7.695312 9.984375 -7.28125 C 9.910156 -6.875 9.875 -6.492188 9.875 -6.140625 C 9.875 -5.234375 10.1875 -4.507812 10.8125 -3.96875 C 11.445312 -3.4375 12.382812 -3.171875 13.625 -3.171875 C 14.519531 -3.171875 15.257812 -3.320312 15.84375 -3.625 C 16.425781 -3.9375 16.898438 -4.347656 17.265625 -4.859375 C 17.640625 -5.378906 17.9375 -5.972656 18.15625 -6.640625 C 18.375 -7.304688 18.5625 -8.015625 18.71875 -8.765625 L 22 -24.5 L 25.515625 -24.5 L 22.15625 -8.6875 C 21.894531 -7.445312 21.519531 -6.285156 21.03125 -5.203125 C 20.539062 -4.128906 19.835938 -3.179688 18.921875 -2.359375 C 18.015625 -1.535156 16.835938 -0.882812 15.390625 -0.40625 C 13.953125 0.0703125 12.164062 0.3125 10.03125 0.3125 C 7.070312 0.3125 4.882812 -0.164062 3.46875 -1.125 C 2.050781 -2.09375 1.34375 -3.582031 1.34375 -5.59375 C 1.34375 -6.5 1.457031 -7.644531 1.6875 -9.03125 C 1.925781 -10.414062 2.222656 -11.921875 2.578125 -13.546875 L 4.9375 -24.5 L 13.703125 -24.5 Z M 10.296875 -8.765625 "/></g></g></g><g fill="#ffffff" fill-opacity="1"><g transform="translate(135.107072, 57.965315)"><g><path d="M 15.203125 -17.40625 C 15.285156 -17.789062 15.328125 -18.316406 15.328125 -18.984375 C 15.328125 -19.367188 15.300781 -19.75 15.25 -20.125 C 15.195312 -20.5 15.101562 -20.832031 14.96875 -21.125 C 14.84375 -21.425781 14.648438 -21.660156 14.390625 -21.828125 C 14.140625 -21.992188 13.804688 -22.078125 13.390625 -22.078125 C 12.929688 -22.078125 12.507812 -21.972656 12.125 -21.765625 C 11.738281 -21.554688 11.394531 -21.289062 11.09375 -20.96875 C 10.800781 -20.65625 10.570312 -20.285156 10.40625 -19.859375 C 10.238281 -19.429688 10.15625 -18.988281 10.15625 -18.53125 C 10.15625 -17.851562 10.328125 -17.332031 10.671875 -16.96875 C 11.015625 -16.613281 11.46875 -16.320312 12.03125 -16.09375 C 12.601562 -15.863281 13.25 -15.671875 13.96875 -15.515625 C 14.6875 -15.359375 15.429688 -15.175781 16.203125 -14.96875 C 16.847656 -14.789062 17.492188 -14.5625 18.140625 -14.28125 C 18.785156 -14 19.359375 -13.617188 19.859375 -13.140625 C 20.359375 -12.660156 20.757812 -12.039062 21.0625 -11.28125 C 21.375 -10.53125 21.53125 -9.585938 21.53125 -8.453125 C 21.53125 -6.828125 21.207031 -5.460938 20.5625 -4.359375 C 19.925781 -3.253906 19.039062 -2.351562 17.90625 -1.65625 C 16.769531 -0.96875 15.425781 -0.46875 13.875 -0.15625 C 12.320312 0.15625 10.628906 0.3125 8.796875 0.3125 C 6.941406 0.3125 5.429688 0.191406 4.265625 -0.046875 C 3.097656 -0.296875 2.175781 -0.5625 1.5 -0.84375 C 0.707031 -1.175781 0.117188 -1.5625 -0.265625 -2 L 1.046875 -7.296875 L 7.828125 -7.296875 C 7.804688 -7.066406 7.78125 -6.75 7.75 -6.34375 C 7.726562 -5.945312 7.71875 -5.632812 7.71875 -5.40625 C 7.71875 -5.09375 7.753906 -4.769531 7.828125 -4.4375 C 7.910156 -4.101562 8.035156 -3.796875 8.203125 -3.515625 C 8.367188 -3.234375 8.601562 -3 8.90625 -2.8125 C 9.21875 -2.632812 9.609375 -2.546875 10.078125 -2.546875 C 10.585938 -2.546875 11.039062 -2.660156 11.4375 -2.890625 C 11.84375 -3.117188 12.179688 -3.40625 12.453125 -3.75 C 12.722656 -4.101562 12.925781 -4.492188 13.0625 -4.921875 C 13.207031 -5.347656 13.28125 -5.765625 13.28125 -6.171875 C 13.28125 -6.742188 13.144531 -7.222656 12.875 -7.609375 C 12.601562 -7.992188 12.234375 -8.320312 11.765625 -8.59375 C 11.304688 -8.863281 10.773438 -9.09375 10.171875 -9.28125 C 9.566406 -9.476562 8.941406 -9.675781 8.296875 -9.875 C 7.679688 -10.0625 7.03125 -10.28125 6.34375 -10.53125 C 5.664062 -10.789062 5.039062 -11.148438 4.46875 -11.609375 C 3.90625 -12.078125 3.4375 -12.664062 3.0625 -13.375 C 2.695312 -14.082031 2.515625 -14.988281 2.515625 -16.09375 C 2.515625 -17.738281 2.929688 -19.117188 3.765625 -20.234375 C 4.597656 -21.359375 5.648438 -22.265625 6.921875 -22.953125 C 8.203125 -23.648438 9.597656 -24.144531 11.109375 -24.4375 C 12.628906 -24.738281 14.070312 -24.890625 15.4375 -24.890625 C 17.238281 -24.890625 18.785156 -24.675781 20.078125 -24.25 C 21.378906 -23.832031 22.367188 -23.335938 23.046875 -22.765625 L 21.609375 -17.40625 Z M 15.203125 -17.40625 "/></g></g></g><g fill="#ffffff" fill-opacity="1"><g transform="translate(157.366034, 57.965315)"><g/></g></g><g fill="#ffffff" fill-opacity="1"><g transform="translate(164.348408, 57.965315)"><g><path d="M 28.328125 0 L 19.765625 0 L 23.3125 -16.671875 L 14.15625 0 L 8.921875 0 L 7.171875 -17.25 L 3.46875 0 L 0 0 L 5.203125 -24.5 L 15.046875 -24.5 L 16.25 -10.6875 L 23.65625 -24.5 L 33.578125 -24.5 Z M 28.328125 0 "/></g></g></g><g fill="#ffffff" fill-opacity="1"><g transform="translate(196.521745, 57.965315)"><g><path d="M 8.34375 0 L 0 0 L 5.203125 -24.5 L 13.578125 -24.5 Z M 8.34375 0 "/></g></g></g><g fill="#ffffff" fill-opacity="1"><g transform="translate(208.712054, 57.965315)"><g><path d="M 13.703125 -11.1875 L 23.703125 -11.1875 L 21.453125 0 L 16.90625 0 L 16.171875 -2.46875 L 16.015625 -2.46875 C 15.347656 -1.695312 14.554688 -1.039062 13.640625 -0.5 C 12.722656 0.0390625 11.535156 0.3125 10.078125 0.3125 C 8.941406 0.3125 7.851562 0.125 6.8125 -0.25 C 5.769531 -0.625 4.84375 -1.210938 4.03125 -2.015625 C 3.21875 -2.828125 2.566406 -3.890625 2.078125 -5.203125 C 1.585938 -6.515625 1.34375 -8.097656 1.34375 -9.953125 C 1.34375 -11.960938 1.648438 -13.867188 2.265625 -15.671875 C 2.890625 -17.472656 3.816406 -19.0625 5.046875 -20.4375 C 6.285156 -21.8125 7.832031 -22.894531 9.6875 -23.6875 C 11.539062 -24.488281 13.703125 -24.890625 16.171875 -24.890625 C 18.078125 -24.890625 19.734375 -24.671875 21.140625 -24.234375 C 22.554688 -23.796875 23.894531 -23.304688 25.15625 -22.765625 L 23.703125 -15.28125 L 17.171875 -15.28125 C 17.203125 -15.5625 17.242188 -15.894531 17.296875 -16.28125 C 17.347656 -16.664062 17.382812 -17.070312 17.40625 -17.5 C 17.425781 -17.925781 17.445312 -18.34375 17.46875 -18.75 C 17.5 -19.164062 17.515625 -19.53125 17.515625 -19.84375 C 17.515625 -20.039062 17.5 -20.273438 17.46875 -20.546875 C 17.445312 -20.816406 17.382812 -21.082031 17.28125 -21.34375 C 17.1875 -21.601562 17.035156 -21.816406 16.828125 -21.984375 C 16.617188 -22.148438 16.320312 -22.234375 15.9375 -22.234375 C 15.269531 -22.234375 14.660156 -21.957031 14.109375 -21.40625 C 13.554688 -20.851562 13.0625 -20.117188 12.625 -19.203125 C 12.1875 -18.285156 11.804688 -17.25 11.484375 -16.09375 C 11.160156 -14.9375 10.890625 -13.757812 10.671875 -12.5625 C 10.453125 -11.363281 10.285156 -10.191406 10.171875 -9.046875 C 10.054688 -7.898438 10 -6.90625 10 -6.0625 C 10 -5.800781 10.007812 -5.476562 10.03125 -5.09375 C 10.0625 -4.707031 10.144531 -4.328125 10.28125 -3.953125 C 10.425781 -3.578125 10.632812 -3.253906 10.90625 -2.984375 C 11.175781 -2.710938 11.566406 -2.578125 12.078125 -2.578125 C 12.929688 -2.578125 13.753906 -3.039062 14.546875 -3.96875 C 15.347656 -4.894531 15.953125 -6.441406 16.359375 -8.609375 L 13.125 -8.609375 Z M 13.703125 -11.1875 "/></g></g></g><g fill="#ffffff" fill-opacity="1"><g transform="translate(233.092765, 57.965315)"><g><path d="M 10.296875 -8.765625 C 10.171875 -8.191406 10.066406 -7.695312 9.984375 -7.28125 C 9.910156 -6.875 9.875 -6.492188 9.875 -6.140625 C 9.875 -5.234375 10.1875 -4.507812 10.8125 -3.96875 C 11.445312 -3.4375 12.382812 -3.171875 13.625 -3.171875 C 14.519531 -3.171875 15.257812 -3.320312 15.84375 -3.625 C 16.425781 -3.9375 16.898438 -4.347656 17.265625 -4.859375 C 17.640625 -5.378906 17.9375 -5.972656 18.15625 -6.640625 C 18.375 -7.304688 18.5625 -8.015625 18.71875 -8.765625 L 22 -24.5 L 25.515625 -24.5 L 22.15625 -8.6875 C 21.894531 -7.445312 21.519531 -6.285156 21.03125 -5.203125 C 20.539062 -4.128906 19.835938 -3.179688 18.921875 -2.359375 C 18.015625 -1.535156 16.835938 -0.882812 15.390625 -0.40625 C 13.953125 0.0703125 12.164062 0.3125 10.03125 0.3125 C 7.070312 0.3125 4.882812 -0.164062 3.46875 -1.125 C 2.050781 -2.09375 1.34375 -3.582031 1.34375 -5.59375 C 1.34375 -6.5 1.457031 -7.644531 1.6875 -9.03125 C 1.925781 -10.414062 2.222656 -11.921875 2.578125 -13.546875 L 4.9375 -24.5 L 13.703125 -24.5 Z M 10.296875 -8.765625 "/></g></g></g><g fill="#ffffff" fill-opacity="1"><g transform="translate(257.010555, 57.965315)"><g><path d="M 5.203125 -24.5 L 21.453125 -24.5 L 20.84375 -21.578125 L 12.96875 -21.578125 L 11.34375 -14.125 L 17.953125 -14.125 L 17.328125 -11.234375 L 10.734375 -11.234375 L 8.953125 -2.96875 L 16.828125 -2.96875 L 16.25 0 L 0 0 Z M 5.203125 -24.5 "/></g></g></g><g fill="#ffffff" fill-opacity="1"><g transform="translate(276.029031, 57.965315)"><g><path d="M 5.203125 -24.5 L 13.578125 -24.5 L 9.03125 -3.234375 L 16.859375 -3.234375 L 16.203125 0 L 0 0 Z M 5.203125 -24.5 "/></g></g></g></svg>